<svg width="81" height="81" viewBox="0 0 81 81" fill="none" xmlns="http://www.w3.org/2000/svg">
<path d="M75 51V63C75 65.7614 72.7614 68 70 68H10C7.23858 68 5 65.7614 5 63V51" stroke="#F14D34" stroke-width="2.5"/>
<path d="M10.25 61V54C10.25 53.0335 11.0335 52.25 12 52.25H68C68.9665 52.25 69.75 53.0335 69.75 54V61C69.75 61.9665 68.9665 62.75 68 62.75H12C11.0335 62.75 10.25 61.9665 10.25 61Z" stroke="#F14D34" stroke-width="2.5"/>
<path d="M10.25 45V38C10.25 37.0335 11.0335 36.25 12 36.25H68C68.9665 36.25 69.75 37.0335 69.75 38V45C69.75 45.9665 68.9665 46.75 68 46.75H12C11.0335 46.75 10.25 45.9665 10.25 45Z" stroke="#F14D34" stroke-width="2.5"/>
<path d="M29 12.05L33 8M33 8L37 12.05M33 8V30" stroke="#050C33" stroke-width="2.5"/>
<path d="M22 26.5H12.5" stroke="#F14D34" stroke-width="2.5"/>
<path d="M22 22L5 22" stroke="#F14D34" stroke-width="2.5"/>
<path d="M58 11H67.5" stroke="#F14D34" stroke-width="2.5"/>
<path d="M58 22H63" stroke="#F14D34" stroke-width="2.5"/>
<path d="M58 15.5L75 15.5" stroke="#F14D34" stroke-width="2.5"/>
<path d="M43 25.95L47 30M47 30L51 25.95M47 30V7" stroke="#050C33" stroke-width="2.5"/>
</svg>
