<?xml version="1.0" encoding="UTF-8" standalone="no"?>
<svg
   xmlns:dc="http://purl.org/dc/elements/1.1/"
   xmlns:cc="http://creativecommons.org/ns#"
   xmlns:rdf="http://www.w3.org/1999/02/22-rdf-syntax-ns#"
   xmlns:svg="http://www.w3.org/2000/svg"
   xmlns="http://www.w3.org/2000/svg"
   xmlns:sodipodi="http://sodipodi.sourceforge.net/DTD/sodipodi-0.dtd"
   xmlns:inkscape="http://www.inkscape.org/namespaces/inkscape"
   width="81"
   height="81"
   viewBox="0 0 81 81"
   fill="none"
   version="1.1"
   id="svg28"
   sodipodi:docname="competency-16.svg"
   inkscape:version="0.92.3 (2405546, 2018-03-11)">
  <metadata
     id="metadata34">
    <rdf:RDF>
      <cc:Work
         rdf:about="">
        <dc:format>image/svg+xml</dc:format>
        <dc:type
           rdf:resource="http://purl.org/dc/dcmitype/StillImage" />
      </cc:Work>
    </rdf:RDF>
  </metadata>
  <defs
     id="defs32" />
  <sodipodi:namedview
     pagecolor="#ffffff"
     bordercolor="#666666"
     borderopacity="1"
     objecttolerance="10"
     gridtolerance="10"
     guidetolerance="10"
     inkscape:pageopacity="0"
     inkscape:pageshadow="2"
     inkscape:window-width="1920"
     inkscape:window-height="1052"
     id="namedview30"
     showgrid="false"
     inkscape:zoom="4.1204247"
     inkscape:cx="-1.1493029"
     inkscape:cy="27.633237"
     inkscape:window-x="1920"
     inkscape:window-y="0"
     inkscape:window-maximized="1"
     inkscape:current-layer="svg28" />
  <path
     d="M 7,16.2759 H 54 V 13 C 54,10.2386 51.7614,8 49,8 H 11 C 8.23858,8 6,10.2386 6,13 v 3.2759 13.2413 16.5173 c 0,2.7614 2.23858,5 5,5 h 38 c 2.7614,0 5,-2.2385 5,-4.9999 V 43.5"
     id="path2"
     inkscape:connector-curvature="0"
     style="stroke:#f14d34;stroke-width:2.5"
     sodipodi:nodetypes="ccssssccssssc" />
  <path
     d="m 26,51.5172 v 16.5173 c 0,2.7614 2.2386,5 5,5 h 38 c 2.7614,0 5,-2.2386 5,-5 V 38.2759 m 0,0 V 35 c 0,-2.7614 -2.2386,-5 -5,-5 h -7 m 12,8.2759 H 64"
     id="path4"
     inkscape:connector-curvature="0"
     style="stroke:#f14d34;stroke-width:2.5"
     sodipodi:nodetypes="cssssccssccc" />
  <path
     d="M10.4573 12.5517H12.5144"
     stroke="#F14D34"
     stroke-width="2.5"
     id="path12" />
  <path
     d="M14.5713 12.5517H16.6284"
     stroke="#F14D34"
     stroke-width="2.5"
     id="path14" />
  <path
     d="M18.6858 12.5517H20.7429"
     stroke="#F14D34"
     stroke-width="2.5"
     id="path16" />
  <path
     d="M13 36L28 36"
     stroke="#F14D34"
     stroke-width="2.5"
     id="path18" />
  <path
     d="M13 40L21 40"
     stroke="#F14D34"
     stroke-width="2.5"
     id="path20" />
  <rect
     x="14.25"
     y="23.25"
     width="12.5"
     height="8.5"
     rx="3.75"
     stroke="#F14D34"
     stroke-width="2.5"
     id="rect22" />
  <path
     inkscape:connector-curvature="0"
     d="m 54,16.2759 c -0.905882,0 -1.647059,0.7875 -1.647059,1.75 0,0.05209 0.01023,0.09501 0.01448,0.143554 -5.747394,0.958009 -6.581291,7.035576 -7.262178,12.019286 -0.741176,5.425001 -1.317004,8.83716 -5.105239,8.83716 v 1.75 h 9.962774 c 0.372933,2.017461 2.014538,3.5 4.037224,3.5 2.022686,0 3.664291,-1.482539 4.037224,-3.5 H 68 v -1.75 c -3.788236,0 -4.365671,-3.412159 -5.106848,-8.83716 -0.680824,-4.98325 -1.514617,-11.060417 -7.260569,-12.019286 0.0043,-0.04855 0.01448,-0.09147 0.01448,-0.143554 0,-0.9625 -0.741176,-1.75 -1.647058,-1.75 z m 0,3.5 c 5.847059,0 6.504917,5.162158 7.246093,10.587158 0.429925,3.197565 0.904872,6.645687 2.663603,8.662842 H 44.090304 c 1.758731,-2.017155 2.232069,-5.465277 2.661994,-8.662842 C 47.493475,24.938058 48.152941,19.7759 54,19.7759 Z m -2.327436,21 h 4.653263 c -0.328616,1.033174 -1.218763,1.75 -2.325827,1.75 -1.107064,0 -1.998819,-0.716826 -2.327436,-1.75 z"
     id="path2-6"
     style="fill:#050c33;fill-opacity:1;stroke-width:0.84887469;stroke:#050c33;stroke-opacity:1" />
  <path
     inkscape:connector-curvature="0"
     d="m 60.235034,51.884398 c -0.509237,0 -0.941253,0.365217 -1.02554,0.86743 l -0.203654,1.194074 c -0.393342,0.122921 -0.776148,0.284443 -1.141392,0.481115 l -0.965796,-0.695333 c -0.175599,-0.12643 -0.386358,-0.193158 -0.604102,-0.193158 -0.277445,0 -0.540789,0.108844 -0.733949,0.305516 l -1.050095,1.046596 c -0.358221,0.358224 -0.40743,0.923639 -0.112423,1.338051 l 0.702396,0.986853 c -0.193158,0.368758 -0.347646,0.751604 -0.467053,1.148459 l -1.166018,0.196658 c -0.502214,0.08429 -0.867431,0.516233 -0.867431,1.025471 v 1.478528 c 0,0.509239 0.365217,0.941251 0.867431,1.025539 l 1.194073,0.203654 c 0.122918,0.393342 0.284512,0.77615 0.481182,1.141396 l -0.6919,0.962294 c -0.295006,0.414411 -0.249309,0.979825 0.112424,1.338054 l 1.046527,1.046594 c 0.19667,0.196672 0.456572,0.305518 0.734019,0.305518 0.217741,0 0.424936,-0.06674 0.600535,-0.193159 l 0.98692,-0.702399 c 0.354711,0.186137 0.726968,0.337153 1.109773,0.456561 l 0.196656,1.180074 c 0.08429,0.502216 0.516233,0.867435 1.025471,0.867435 h 1.482098 c 0.509236,0 0.941181,-0.365219 1.02547,-0.867435 L 62.97088,66.64871 c 0.396853,-0.122925 0.779646,-0.280964 1.144893,-0.474117 l 0.972789,0.695395 c 0.175599,0.12643 0.38636,0.193159 0.604102,0.193159 0.277448,0 0.537278,-0.108843 0.733948,-0.305517 l 1.046598,-1.046594 c 0.358221,-0.358223 0.407363,-0.923637 0.112353,-1.338054 l -0.69533,-0.976354 c 0.193158,-0.368756 0.354708,-0.751551 0.474116,-1.144894 l 1.180012,-0.196659 c 0.502212,-0.08429 0.867432,-0.516299 0.867432,-1.025536 v -1.478531 c 0.007,-0.509237 -0.358223,-0.941181 -0.860434,-1.025469 L 67.37135,58.325314 c -0.122919,-0.396853 -0.280959,-0.779645 -0.474119,-1.144892 l 0.695401,-0.97279 c 0.295006,-0.414414 0.249309,-0.979829 -0.112424,-1.338052 l -1.046529,-1.046597 c -0.196672,-0.19667 -0.45657,-0.305515 -0.734017,-0.305515 -0.217743,0 -0.424937,0.06673 -0.600536,0.19316 l -0.976356,0.69533 c -0.379295,-0.200182 -0.776108,-0.365259 -1.18701,-0.488179 l -0.196725,-1.165951 c -0.08429,-0.502213 -0.516234,-0.86743 -1.025472,-0.86743 z m 0.007,0.944668 h 1.478531 c 0.04565,0 0.08434,0.03165 0.09137,0.07731 l 0.245838,1.464468 c 0.03161,0.186133 0.168576,0.337163 0.351197,0.382818 0.53031,0.133455 1.03598,0.340649 1.506586,0.618096 0.16155,0.09482 0.361774,0.08781 0.516301,-0.02107 l 1.211633,-0.870997 c 0.01755,-0.01056 0.03513,-0.01755 0.05267,-0.01755 0.01405,0 0.04216,0.0035 0.06674,0.02812 l 1.046528,1.046595 c 0.03161,0.03161 0.03515,0.08072 0.01056,0.119353 l -0.867499,1.2187 c -0.108867,0.151013 -0.115886,0.354681 -0.02106,0.516234 0.273934,0.460069 0.477642,0.955271 0.611099,1.471534 0.04566,0.182622 0.196697,0.319602 0.379321,0.347697 l 1.475031,0.249339 c 0.04565,0.007 0.07724,0.04564 0.07724,0.0913 v 1.478529 h -0.0035 c 0,0.04565 -0.03165,0.08434 -0.07731,0.09137 l -1.475033,0.245839 c -0.186135,0.03161 -0.333596,0.16852 -0.379251,0.347632 -0.133457,0.516261 -0.337164,1.011461 -0.611099,1.471533 -0.09483,0.161552 -0.08781,0.361774 0.02106,0.516302 l 0.867501,1.222132 c 0.02459,0.03512 0.02103,0.08781 -0.01056,0.11942 l -1.046596,1.046595 c -0.02459,0.02461 -0.04912,0.02803 -0.06667,0.02803 -0.02108,0 -0.03864,-0.007 -0.05267,-0.01759 l -1.218698,-0.867427 c -0.151013,-0.108879 -0.354681,-0.115885 -0.516233,-0.02107 -0.460069,0.273936 -0.955271,0.477576 -1.471533,0.61103 -0.182623,0.04568 -0.319603,0.196697 -0.347699,0.379323 l -0.249338,1.475031 c -0.007,0.04568 -0.04564,0.07724 -0.0913,0.07724 H 60.26668 c -0.04566,0 -0.08434,-0.03157 -0.09137,-0.07724 L 59.929476,66.20266 c -0.03161,-0.186137 -0.168522,-0.333669 -0.347632,-0.379323 -0.502213,-0.129942 -0.986868,-0.330085 -1.439911,-0.589968 -0.07375,-0.04213 -0.158069,-0.06327 -0.238842,-0.06327 -0.09483,0 -0.193187,0.0281 -0.273963,0.0878 l -1.229193,0.874497 c -0.01755,0.01056 -0.03511,0.01752 -0.05267,0.01752 -0.01405,0 -0.04209,-0.0033 -0.06668,-0.02816 l -1.046598,-1.046521 c -0.03161,-0.03164 -0.03515,-0.08079 -0.01056,-0.11942 l 0.864,-1.211638 c 0.108867,-0.154527 0.115885,-0.358248 0.02107,-0.519799 -0.273935,-0.456555 -0.484639,-0.951707 -0.618096,-1.467969 -0.04916,-0.179109 -0.196697,-0.316092 -0.37932,-0.347697 l -1.485595,-0.252837 c -0.04565,-0.007 -0.07724,-0.0457 -0.07724,-0.09137 v -1.478528 c 0,-0.04565 0.03158,-0.08428 0.07724,-0.0913 l 1.464536,-0.24584 c 0.186135,-0.03161 0.337165,-0.168575 0.38282,-0.351197 0.129943,-0.51626 0.330111,-1.014962 0.600533,-1.475031 0.09482,-0.161553 0.08424,-0.36172 -0.02462,-0.512736 L 55.174328,55.68068 c -0.02458,-0.03512 -0.0211,-0.08781 0.01045,-0.119422 l 1.046596,-1.046596 c 0.02459,-0.02459 0.04919,-0.02806 0.06675,-0.02806 0.02108,0 0.03864,0.007 0.05267,0.01755 l 1.211635,0.863932 c 0.154526,0.108867 0.358181,0.115885 0.51973,0.02107 0.456559,-0.273935 0.951774,-0.484639 1.468036,-0.618095 0.17911,-0.04916 0.316093,-0.196699 0.347699,-0.379324 l 0.252835,-1.485523 c 0.007,-0.04565 0.04564,-0.07731 0.0913,-0.07731 z m 0.765639,3.831626 c -2.00183,0 -3.627903,1.626004 -3.627903,3.627833 0,2.001827 1.626073,3.627902 3.627903,3.627902 2.001828,0 3.627833,-1.626075 3.627833,-3.627902 0,-2.001829 -1.626005,-3.627833 -3.627833,-3.627833 z m 0,0.948234 c 1.478544,0 2.6796,1.201055 2.6796,2.679599 0,1.478543 -1.201056,2.679666 -2.6796,2.679666 -1.478543,0 -2.679668,-1.201123 -2.679668,-2.679666 0,-1.478544 1.201125,-2.679599 2.679668,-2.679599 z"
     id="path2-9"
     style="fill:#f14d34;fill-opacity:1;stroke:#f14d34;stroke-width:0.58682096;stroke-opacity:1" />
</svg>
