<svg width="764" height="743" viewBox="0 0 764 743" fill="none" xmlns="http://www.w3.org/2000/svg">
<path fill-rule="evenodd" clip-rule="evenodd" d="M299.357 -266.244C328.888 -260.971 358.85 -255.621 390.822 -245.42C391.411 -245.227 392.045 -245.021 392.722 -244.801C438.09 -230.04 676.245 -152.555 747.493 129.077C819.804 414.91 641.649 660.798 381.211 726.684C120.774 792.571 -165.587 646.99 -235.982 368.729C-306.378 90.467 -121.657 -93.9878 -86.8394 -124.579C-76.7465 -133.929 -67.2182 -142.286 -57.9335 -150.43C-29.5332 -175.34 -3.41246 -198.251 29.6111 -241.43C50.0116 -269.534 65.2015 -305.471 53.8951 -381.817C104.568 -345.141 164.698 -302.994 203.932 -288.817C236.54 -277.46 267.701 -271.896 299.357 -266.244ZM19.4699 483.009C-0.645096 398.903 58.2759 300.215 157.401 273.656C230.978 254.366 302.277 281.735 361.528 304.48C403.864 320.732 440.049 334.622 466.518 327.442C493.599 320.007 526.598 282.812 559.175 246.094L559.175 246.093C591.246 209.945 622.907 174.258 648.108 167.883C702.126 154.217 731.428 206.482 739.887 239.917C748.345 273.352 752.819 336.474 736.753 380.689C720.686 424.905 707.368 443.226 676.895 448.615C658.452 451.694 625.208 431.546 589.852 410.118C549.068 385.401 505.475 358.98 478.553 364.548C450.527 370.615 414.906 406.478 374.656 447C323.636 498.366 265.178 557.219 205.328 572.36C140.507 588.759 118.618 583.92 93.4108 575.41C55.2693 560.956 30.3904 530.515 19.424 482.827L19.4699 483.009ZM523.48 443.86C508.422 438.453 489.756 442.016 472.458 446.392L472.519 446.376C470.507 446.885 468.594 447.354 466.757 447.803C452.798 451.22 443.265 453.554 428.759 464.342C412.657 476.319 398.038 497.844 388.603 511.735L388.061 512.533C378.65 526.386 378.839 535.812 387.448 542.528C396.016 549.212 401.139 542.276 415.557 522.753L415.762 522.475C417.033 520.754 418.259 519.062 419.462 517.4C432.062 500.004 442.251 485.935 476.766 477.203C513.751 467.847 524.043 479.239 534.959 491.323C535.204 491.593 535.448 491.864 535.693 492.135L535.804 492.258C546.907 504.522 548.546 506.333 554.963 500.149C556.902 498.93 558.549 497.301 559.789 495.377C561.028 493.454 561.83 491.283 562.138 489.017C562.445 486.751 562.251 484.446 561.568 482.264C560.886 480.082 559.731 478.077 558.187 476.39L558.101 476.271C551.047 466.557 538.477 449.244 523.48 443.86ZM455.285 614.883C386.093 632.387 350.128 626.534 324.154 614.738L324.305 614.571C323.765 614.383 323.325 614.216 322.948 614.073C320.709 613.225 320.709 613.225 315.15 614.631C309.12 616.622 304.029 620.754 300.845 626.242C299.657 628.086 298.862 630.153 298.507 632.316C298.153 634.478 298.247 636.691 298.784 638.815C299.322 640.939 300.291 642.929 301.631 644.663C302.971 646.397 304.654 647.838 306.576 648.895C365.025 680.059 443.1 656.828 500.123 636.666C540.061 621.421 575.248 595.886 602.098 562.661C604.038 559.808 605.055 556.431 605.015 552.984C604.974 549.538 603.877 546.188 601.871 543.385C599.676 539.3 593.681 533.985 585.87 543.952C568.173 565.637 524.476 597.379 455.285 614.883Z" fill="url(#paint0_linear)" fill-opacity="0.548"/>
<defs>
<linearGradient id="paint0_linear" x1="1881.19" y1="-1541.77" x2="-348.567" y2="-568.114" gradientUnits="userSpaceOnUse">
<stop/>
<stop offset="1" stop-color="white" stop-opacity="0"/>
</linearGradient>
</defs>
</svg>
