<?xml version="1.0" encoding="UTF-8" standalone="no"?>
<svg
   xmlns:dc="http://purl.org/dc/elements/1.1/"
   xmlns:cc="http://creativecommons.org/ns#"
   xmlns:rdf="http://www.w3.org/1999/02/22-rdf-syntax-ns#"
   xmlns:svg="http://www.w3.org/2000/svg"
   xmlns="http://www.w3.org/2000/svg"
   xmlns:sodipodi="http://sodipodi.sourceforge.net/DTD/sodipodi-0.dtd"
   xmlns:inkscape="http://www.inkscape.org/namespaces/inkscape"
   id="svg58"
   version="1.1"
   viewBox="0 0 345.00001 49.999998"
   inkscape:version="0.91 r13725"
   sodipodi:docname="drupal-coder.svg"
   width="345"
   height="50">
  <sodipodi:namedview
     pagecolor="#ffffff"
     bordercolor="#666666"
     borderopacity="1"
     objecttolerance="10"
     gridtolerance="10"
     guidetolerance="10"
     inkscape:pageopacity="0"
     inkscape:pageshadow="2"
     inkscape:window-width="1855"
     inkscape:window-height="1056"
     id="namedview32"
     showgrid="false"
     inkscape:zoom="2.5917481"
     inkscape:cx="158.67093"
     inkscape:cy="56.505331"
     inkscape:window-x="65"
     inkscape:window-y="24"
     inkscape:window-maximized="1"
     inkscape:current-layer="svg58" />
  <metadata
     id="metadata62">
    <rdf:RDF>
      <cc:Work
         rdf:about="">
        <dc:format>image/svg+xml</dc:format>
        <dc:type
           rdf:resource="http://purl.org/dc/dcmitype/StillImage" />
        <dc:title>drupal-coder</dc:title>
      </cc:Work>
    </rdf:RDF>
  </metadata>
  <defs
     id="defs4">
    <style
       id="style2">
      .cls-1 {
        fill: #b0bdd2;
      }

      .cls-2 {
        fill: #8ea2c3;
      }

      .cls-3 {
        fill: #344e7b;
      }

      .cls-4 {
        fill: #fff;
      }
    </style>
  </defs>
  <title
     id="title6">drupal-coder</title>
  <rect
     class="cls-1"
     y="8.2002544"
     width="6.0561676"
     height="6.0561676"
     id="rect8"
     x="7.059"
     style="fill:#f4f464;fill-opacity:1" />
  <polygon
     class="cls-1"
     points="88.44,19.78 70.76,19.78 70.76,37.47 70.76,55.16 70.76,72.85 53.07,72.85 53.07,90.54 70.76,90.54 88.44,90.54 88.44,72.85 88.44,55.16 88.44,37.47 "
     id="polygon20"
     style="fill:#f4ac2b;fill-opacity:1"
     transform="matrix(0.34234973,0,0,0.34234973,7.0589989,1.4285741)" />
  <g
     id="g4179">
    <rect
       style="fill:#f9e050;fill-opacity:1"
       id="rect10"
       height="6.0561671"
       width="6.0561671"
       y="2.1440849"
       x="19.171333"
       class="cls-2" />
    <rect
       style="fill:#f9e050;fill-opacity:1"
       id="rect12"
       height="6.0561671"
       width="6.0561671"
       y="8.2002516"
       x="25.227499"
       class="cls-2" />
    <rect
       style="fill:#f9e050;fill-opacity:1"
       id="rect14"
       height="6.0561671"
       width="6.0561671"
       y="14.256419"
       x="19.171333"
       class="cls-2" />
    <rect
       style="fill:#f9e050;fill-opacity:1"
       id="rect16"
       height="6.0561671"
       width="6.0561671"
       y="20.312586"
       x="25.227499"
       class="cls-2" />
    <rect
       style="fill:#f9e050;fill-opacity:1"
       id="rect18"
       height="6.0561671"
       width="6.0561671"
       y="26.368752"
       x="19.171333"
       class="cls-2" />
    <rect
       style="fill:#f9e050;fill-opacity:1"
       id="rect22"
       height="6.0561671"
       width="6.0561671"
       y="32.424919"
       x="25.227499"
       class="cls-2" />
  </g>
  <polygon
     style="fill:#f14d34;fill-opacity:1"
     id="polygon24"
     points="141.51,72.85 141.51,90.54 159.2,90.54 159.2,72.85 159.2,55.16 159.2,37.47 159.2,19.78 141.51,19.78 141.51,37.47 141.51,55.16 "
     class="cls-3"
     transform="matrix(0.34234973,0,0,0.34234973,7.0589989,1.4285741)" />
  <polygon
     style="fill:#f14d34;fill-opacity:1"
     id="polygon26"
     points="70.76,108.23 88.44,108.23 106.13,108.23 123.82,108.23 141.51,108.23 141.51,90.54 123.82,90.54 106.13,90.54 106.13,72.85 106.13,55.16 106.13,37.47 106.13,19.78 123.82,19.78 141.51,19.78 141.51,2.09 123.82,2.09 106.13,2.09 88.44,2.09 70.76,2.09 70.76,19.78 88.44,19.78 88.44,37.47 88.44,55.16 88.44,72.85 88.44,90.54 70.76,90.54 "
     class="cls-3"
     transform="matrix(0.34234973,0,0,0.34234973,7.0589989,1.4285741)" />
  <g
     id="g4157">
    <path
       class="cls-4"
       d="m 77.945934,16.772689 a 20.821711,20.821711 0 0 1 4.012339,-2.85862 8.3156749,8.3156749 0 0 1 3.909634,-1.003085 10.291033,10.291033 0 0 1 2.256084,0.225951 8.0212542,8.0212542 0 0 1 1.958241,0.725781 l -0.955156,5.415973 a 8.2163935,8.2163935 0 0 0 -1.855535,-0.801098 7.5967405,7.5967405 0 0 0 -2.204733,-0.301268 5.7514755,5.7514755 0 0 0 -1.530303,0.198563 8.6956831,8.6956831 0 0 0 -1.502915,0.578571 11.715208,11.715208 0 0 0 -1.60562,0.962003 c -0.551184,0.383431 -1.177684,0.811368 -1.8795,1.276964 l 0,12.776492 7.422142,0 0,4.450546 -19.654298,0 0,-4.450546 6.217071,0 0,-15.843946 -5.905533,0 0,-4.512169 10.931227,0 z"
       id="path30"
       style="fill:#fff"
       inkscape:connector-curvature="0" />
    <path
       class="cls-4"
       d="m 98.668363,13.612801 0,15.932956 q 0,2.615552 0.876415,3.594673 a 3.0366421,3.0366421 0 0 0 2.396452,0.97912 6.925735,6.925735 0 0 0 2.80726,-0.640194 14.012374,14.012374 0 0 0 3.00926,-1.865806 l 0,-18.000749 6.01508,0 0,24.816932 -4.92641,0 -0.40055,-2.553929 a 23.468074,23.468074 0 0 1 -2.00617,1.253 16.371164,16.371164 0 0 1 -2.0541,0.951732 14.159585,14.159585 0 0 1 -2.13284,0.6265 11.098978,11.098978 0 0 1 -2.280044,0.225951 q -3.608367,0 -5.477596,-1.930852 -1.86923,-1.930853 -1.848689,-6.241036 l 0,-17.148298 z"
       id="path32"
       style="fill:#fff"
       inkscape:connector-curvature="0" />
    <path
       class="cls-4"
       d="m 118.58627,13.612801 4.91614,0 0.40055,2.557352 a 23.848082,23.848082 0 0 1 3.83432,-2.156803 10.270492,10.270492 0 0 1 4.18694,-0.852451 10.089047,10.089047 0 0 1 3.56043,0.592265 6.1622951,6.1622951 0 0 1 2.7388,2.054099 10.671041,10.671041 0 0 1 1.75626,3.861705 24.341066,24.341066 0 0 1 0.6265,6.015084 19.400959,19.400959 0 0 1 -0.85246,6.162296 11.502951,11.502951 0 0 1 -2.28347,4.108196 8.3636039,8.3636039 0 0 1 -3.33448,2.28005 11.76656,11.76656 0 0 1 -4.1082,0.684699 11.352317,11.352317 0 0 1 -2.98529,-0.376585 11.516645,11.516645 0 0 1 -2.63267,-1.078401 l -0.0479,0.05135 q 0.0959,1.451563 0.1746,2.707987 c 0.0479,0.835333 0.0753,1.711748 0.0753,2.605281 l 0,6.217071 -6.02536,0 z m 6.01851,19.253749 a 12.468377,12.468377 0 0 0 2.20473,1.003085 7.1277214,7.1277214 0 0 0 2.25609,0.342349 6.1349072,6.1349072 0 0 0 2.08148,-0.342349 4.0363033,4.0363033 0 0 0 1.75626,-1.287235 6.9565465,6.9565465 0 0 0 1.22561,-2.557353 15.518713,15.518713 0 0 0 0.4519,-4.108197 21.701549,21.701549 0 0 0 -0.30127,-4.012339 6.5765383,6.5765383 0 0 0 -0.87641,-2.396448 3.0811476,3.0811476 0 0 0 -1.40364,-1.177683 5.1352459,5.1352459 0 0 0 -1.8795,-0.342349 5.8781449,5.8781449 0 0 0 -2.55393,0.612806 22.061017,22.061017 0 0 0 -2.9579,1.780218 z"
       id="path34"
       style="fill:#fff"
       inkscape:connector-curvature="0" />
    <path
       class="cls-4"
       d="m 158.66515,21.332787 q 0,-1.800759 -1.15372,-2.707986 -1.15371,-0.907227 -3.81035,-0.90038 a 29.479735,29.479735 0 0 0 -3.76584,0.249916 q -1.95825,0.249915 -3.86171,0.650464 l -0.55118,-4.409464 a 42.499295,42.499295 0 0 1 4.45054,-0.804522 37.572883,37.572883 0 0 1 4.71416,-0.301268 19.469429,19.469429 0 0 1 4.6628,0.47929 7.8740438,7.8740438 0 0 1 3.08115,1.427598 5.4022787,5.4022787 0 0 1 1.71175,2.458071 10.828522,10.828522 0 0 1 0.52722,3.557014 l 0,17.398213 -5.00173,0 -0.34235,-2.304014 a 26.261648,26.261648 0 0 1 -4.02946,1.978782 12.454683,12.454683 0 0 1 -4.53956,0.828486 q -3.42349,0 -5.59057,-1.804183 -2.16707,-1.804183 -2.19446,-5.515254 a 9.0106449,9.0106449 0 0 1 0.65389,-3.512508 5.9089563,5.9089563 0 0 1 2.18077,-2.605282 11.427634,11.427634 0 0 1 4.0363,-1.60562 29.318831,29.318831 0 0 1 6.1623,-0.551183 l 2.65663,0 z m -2.506,5.915804 a 26.045967,26.045967 0 0 0 -3.76584,0.225951 7.1893443,7.1893443 0 0 0 -2.39645,0.729204 2.8757377,2.8757377 0 0 0 -1.253,1.229036 3.9541394,3.9541394 0 0 0 -0.34235,1.711749 q 0,1.756254 0.9757,2.529964 c 0.65388,0.520372 1.56453,0.777134 2.73879,0.777134 a 8.3670274,8.3670274 0 0 0 3.1325,-0.588841 23.800153,23.800153 0 0 0 3.4235,-1.766525 l 0,-4.847672 z"
       id="path36"
       style="fill:#fff"
       inkscape:connector-curvature="0" />
    <path
       class="cls-4"
       d="m 184.29345,33.968916 0,4.450546 -14.27598,0 0,-32.5403414 -7.83638,0 0,-4.4505465 13.83777,0 0,32.5403419 z"
       id="path38"
       style="fill:#fff"
       inkscape:connector-curvature="0" />
    <path
       class="cls-4"
       d="m 187.79912,22.537858 16.43278,0 0,5.162634 -16.43278,0 z"
       id="path40"
       style="fill:#fff"
       inkscape:connector-curvature="0" />
    <path
       class="cls-4"
       d="m 231.21248,37.929902 q -1.75625,0.400549 -3.73503,0.6847 a 25.998038,25.998038 0 0 1 -3.9336,0.301268 24.255478,24.255478 0 0 1 -5.64192,-0.575148 8.3978389,8.3978389 0 0 1 -3.90964,-2.033557 9.0106449,9.0106449 0 0 1 -2.30743,-3.909634 q -0.78056,-2.454648 -0.77714,-6.217071 0.003,-3.762424 0.95173,-6.316353 a 10.249951,10.249951 0 0 1 2.63267,-4.036303 9.2913717,9.2913717 0 0 1 4.08766,-2.132839 22.129487,22.129487 0 0 1 5.36462,-0.602536 28.68206,28.68206 0 0 1 3.85828,0.253339 31.475634,31.475634 0 0 1 3.61179,0.6847 l -0.55118,4.447123 a 24.00214,24.00214 0 0 0 -3.10854,-0.578571 29.346219,29.346219 0 0 0 -3.36187,-0.174599 13.783,13.783 0 0 0 -3.1325,0.325232 5.0565055,5.0565055 0 0 0 -2.35537,1.253001 5.748052,5.748052 0 0 0 -1.47895,2.533388 14.207514,14.207514 0 0 0 -0.50668,4.159549 16.583421,16.583421 0 0 0 0.43136,4.19036 5.8199454,5.8199454 0 0 0 1.32832,2.533388 4.6764973,4.6764973 0 0 0 2.30744,1.304353 14.303372,14.303372 0 0 0 3.4235,0.34235 22.882656,22.882656 0 0 0 3.13592,-0.225951 30.7567,30.7567 0 0 0 3.23178,-0.6265 z"
       id="path42"
       style="fill:#fff"
       inkscape:connector-curvature="0" />
    <path
       class="cls-4"
       d="m 257.72405,25.844957 q 0,3.861705 -0.8011,6.419057 a 9.9966121,9.9966121 0 0 1 -2.30059,4.084233 8.240358,8.240358 0 0 1 -3.62548,2.153379 16.901806,16.901806 0 0 1 -4.7929,0.629924 18.425262,18.425262 0 0 1 -4.8511,-0.578571 7.6754809,7.6754809 0 0 1 -3.52962,-2.030134 9.4077706,9.4077706 0 0 1 -2.16023,-3.940445 q -0.75659,-2.506 -0.75317,-6.367705 0.003,-3.861705 0.8011,-6.419058 a 10.150669,10.150669 0 0 1 2.27663,-4.084232 8.1068416,8.1068416 0 0 1 3.58097,-2.173921 16.826489,16.826489 0 0 1 4.7929,-0.6265 18.432109,18.432109 0 0 1 4.8511,0.575148 7.8740438,7.8740438 0 0 1 3.55359,2.030133 9.2776777,9.2776777 0 0 1 2.20815,3.960987 q 0.74975,2.512847 0.74975,6.367705 z m -6.01509,0.201986 a 22.564271,22.564271 0 0 0 -0.34235,-4.262254 6.7477132,6.7477132 0 0 0 -1.0065,-2.605281 3.4234973,3.4234973 0 0 0 -1.71175,-1.304353 7.4906121,7.4906121 0 0 0 -2.39645,-0.34235 7.0318635,7.0318635 0 0 0 -2.3451,0.34235 3.6460246,3.6460246 0 0 0 -1.65355,1.276965 6.0150848,6.0150848 0 0 0 -1.02705,2.581317 24.508817,24.508817 0 0 0 -0.30126,4.262254 24.936754,24.936754 0 0 0 0.30126,4.289642 6.2204946,6.2204946 0 0 0 1.02705,2.639516 3.5741312,3.5741312 0 0 0 1.68436,1.304353 8.2163935,8.2163935 0 0 0 4.76209,0 3.4851203,3.4851203 0 0 0 1.68778,-1.276965 6.5696913,6.5696913 0 0 0 1.00651,-2.608705 22.968243,22.968243 0 0 0 0.31496,-4.296489 z"
       id="path44"
       style="fill:#fff"
       inkscape:connector-curvature="0" />
    <path
       class="cls-4"
       d="m 278.76486,35.875804 a 25.426314,25.426314 0 0 1 -3.83431,2.180768 10.612842,10.612842 0 0 1 -7.74738,0.273879 6.1622951,6.1622951 0 0 1 -2.7388,-2.054098 10.585454,10.585454 0 0 1 -1.75625,-3.861705 24.341066,24.341066 0 0 1 -0.6265,-6.015085 19.339336,19.339336 0 0 1 0.85245,-6.162295 11.533762,11.533762 0 0 1 2.27663,-4.087656 8.3396394,8.3396394 0 0 1 3.33448,-2.280049 11.752866,11.752866 0 0 1 4.1082,-0.684699 11.982241,11.982241 0 0 1 2.98529,0.34235 10.903839,10.903839 0 0 1 2.63267,1.051013 l 0.0479,-0.04793 q -0.0993,-1.407057 -0.1746,-2.684022 c -0.0479,-0.85245 -0.0753,-1.728866 -0.0753,-2.632669 l 0,-7.7850329 6.01851,0 0,37.0011589 -4.90245,0 z m -0.6847,-16.696396 a 12.468377,12.468377 0 0 0 -2.20473,-1.003085 7.0318635,7.0318635 0 0 0 -2.25608,-0.34235 6.0561667,6.0561667 0 0 0 -2.08149,0.34235 4.0739618,4.0739618 0 0 0 -1.75625,1.307776 7.021593,7.021593 0 0 0 -1.22562,2.564199 15.861063,15.861063 0 0 0 -0.4519,4.173244 21.338659,21.338659 0 0 0 0.30127,3.998644 6.8469946,6.8469946 0 0 0 0.87641,2.416989 2.8757377,2.8757377 0 0 0 1.3694,1.181107 5.2208334,5.2208334 0 0 0 1.85554,0.301268 6.1040957,6.1040957 0 0 0 2.61213,-0.612806 20.003495,20.003495 0 0 0 2.9579,-1.793913 z"
       id="path46"
       style="fill:#fff"
       inkscape:connector-curvature="0" />
    <path
       class="cls-4"
       d="m 309.81256,37.779268 a 32.108981,32.108981 0 0 1 -4.2246,0.852451 36.443129,36.443129 0 0 1 -4.88875,0.301268 22.595082,22.595082 0 0 1 -5.03939,-0.503254 7.9562077,7.9562077 0 0 1 -3.71107,-1.8795 8.7436121,8.7436121 0 0 1 -2.30744,-3.858282 q -0.8011,-2.485459 -0.8011,-6.504644 0,-3.861705 0.85246,-6.419058 a 10.075353,10.075353 0 0 1 2.39644,-4.084232 8.6032487,8.6032487 0 0 1 3.73504,-2.156803 18.860047,18.860047 0 0 1 9.24344,-0.09928 7.0524044,7.0524044 0 0 1 3.18385,1.804183 7.8740438,7.8740438 0 0 1 1.90689,3.48512 20.746394,20.746394 0 0 1 0.6265,5.563184 c 0,0.571724 0,1.129754 -0.0274,1.680937 -0.0274,0.551183 -0.0582,1.129754 -0.12324,1.711748 l -15.76521,0 a 12.403331,12.403331 0 0 0 0.47929,3.461156 4.2896421,4.2896421 0 0 0 1.253,2.00617 4.5429809,4.5429809 0 0 0 2.13969,0.97912 16.350623,16.350623 0 0 0 3.06061,0.249915 25.782358,25.782358 0 0 0 3.88566,-0.27388 q 1.7768,-0.277303 3.63234,-0.729205 z m -4.36154,-13.98841 a 12.728563,12.728563 0 0 0 -0.34235,-3.159888 4.2725246,4.2725246 0 0 0 -0.97569,-1.930852 3.6049427,3.6049427 0 0 0 -1.57824,-0.951732 7.607011,7.607011 0 0 0 -2.13283,-0.27388 7.9117023,7.9117023 0 0 0 -2.25609,0.297844 4.2109017,4.2109017 0 0 0 -1.72886,1.003085 4.6148744,4.6148744 0 0 0 -1.12976,1.930852 11.119519,11.119519 0 0 0 -0.4519,3.081148 z"
       id="path48"
       style="fill:#fff"
       inkscape:connector-curvature="0" />
    <path
       class="cls-4"
       d="m 326.74175,16.772689 a 20.821711,20.821711 0 0 1 4.01234,-2.85862 8.3156749,8.3156749 0 0 1 3.90964,-1.003085 10.291033,10.291033 0 0 1 2.25608,0.225951 7.9972897,7.9972897 0 0 1 1.95482,0.725781 l -0.95173,5.415973 a 8.2780165,8.2780165 0 0 0 -1.86581,-0.801098 7.5967405,7.5967405 0 0 0 -2.20473,-0.301268 5.7514755,5.7514755 0 0 0 -1.53031,0.198563 8.6956831,8.6956831 0 0 0 -1.50291,0.578571 11.715208,11.715208 0 0 0 -1.60905,0.962003 c -0.55118,0.383431 -1.17768,0.811368 -1.8795,1.276964 l 0,12.776492 7.41872,0 0,4.450546 -19.6406,0 0,-4.450546 6.22734,0 0,-15.843946 -5.92607,0 0,-4.512169 10.93122,0 z"
       id="path50"
       style="fill:#fff"
       inkscape:connector-curvature="0" />
  </g>
  <path
     id="path3037"
     word-spacing="0"
     letter-spacing="0"
     font-weight="700"
     style="font-weight:700;line-height:125%;font-family:CamingoCode;-inkscape-font-specification:'CamingoCode Bold';letter-spacing:0;word-spacing:0;fill:#ffffff;stroke-width:17.70465469"
     d="m 293.89196,-234.60898 q 9.48972,-8.37432 18.05878,-12.88902 8.60447,-4.51469 17.63381,-4.51469 5.6655,0 10.16248,1.1331 4.53241,0.88525 8.81691,3.18686 l -4.2845,24.37929 q -3.84193,-2.2662 -8.35662,-3.62944 -4.53236,-1.38095 -9.95001,-1.38095 -3.61174,0 -6.99333,0.88521 -3.18682,0.92066 -6.78089,2.72653 -3.3993,1.59343 -7.22348,4.2845 -3.62949,2.47868 -8.37432,5.63009 l 0,57.62865 33.4618,0 0,20.11249 -88.57641,0 0,-20.07707 28.00879,0 0,-71.38517 -26.6455,0 0,-20.32493 49.21892,0 z m 101.62474,-14.23455 0,71.5976 q 0,11.75592 3.82422,16.28828 4.07207,4.24913 10.85296,4.24913 6.05496,0 12.60573,-2.69111 6.5507,-2.93897 13.56179,-8.35658 l 0,-81.08732 27.08811,0 0,111.82259 -22.13084,0 -1.82358,-11.50803 q -4.51469,3.1337 -9.02938,5.63009 -4.5147,2.47864 -9.25953,4.28451 -4.74486,1.80586 -9.73759,2.70882 -4.72713,1.16852 -10.14478,1.16852 -16.28828,0 -24.60944,-8.58677 -8.37432,-8.78149 -8.37432,-28.22121 l 0,-77.29852 z m 97.9776,0 22.1308,0 1.80592,11.50802 q 8.58671,-5.84252 17.17347,-9.70215 8.81696,-3.84193 18.9794,-3.84193 8.79924,0 16.04042,2.70883 7.22352,2.70882 12.21621,9.25953 5.16975,6.5507 7.87858,17.40366 2.90355,10.83526 2.90355,27.08812 0,16.28832 -3.84188,27.79634 -3.84192,11.29554 -10.39263,18.51906 -6.3029,7.01104 -14.87191,10.16244 -8.60447,3.18687 -18.53681,3.18687 -7.22348,0 -13.56174,-1.82358 -6.09042,-1.59343 -11.73822,-4.74483 l -0.23,0.23 q 0.49575,6.5507 0.70818,12.2162 0.46047,5.63009 0.46047,11.72046 l 0,28.026485 -27.08811,0 z m 27.08812,86.75278 q 5.20517,2.9213 9.95,4.49698 4.74489,1.59344 10.1802,1.59344 4.95732,0 9.29494,-1.59344 4.5147,-1.59338 7.89629,-5.84252 3.62944,-4.31992 5.66545,-11.54344 2.03606,-7.22347 2.03606,-18.51906 0,-11.0654 -1.34553,-18.05877 -1.381,-7.02875 -4.07212,-10.85292 -2.47863,-3.84192 -6.33822,-5.20517 -3.61178,-1.54031 -8.32121,-1.54031 -5.6655,0 -11.54343,2.93897 -5.87794,2.69112 -13.3316,7.87858 z m 163.76804,-51.96316 q 0,-8.14413 -5.22283,-12.2162 -5.22288,-4.07207 -17.17353,-4.07207 -8.14413,0 -16.96109,1.15081 -8.8169,1.1331 -17.40366,2.93897 l -2.47864,-19.88231 q 9.47197,-2.2662 20.07708,-3.61178 10.62277,-1.32783 21.24559,-1.32783 12.39323,0 20.9977,2.2662 8.60447,2.03601 13.80964,6.32056 5.4176,4.24909 7.6661,11.04769 2.47868,6.7809 2.47868,16.04043 l 0,78.3785 -22.50264,0 -1.59339,-10.37493 q -8.56905,5.22288 -18.28892,9.02939 -9.48972,3.64715 -20.32497,3.64715 -15.40303,0 -25.31762,-8.14413 -9.73757,-8.14414 -9.73757,-24.83963 0,-8.79924 2.93897,-15.81028 2.93897,-7.01104 9.73757,-11.75587 6.97562,-4.74488 18.27117,-7.25893 11.29558,-2.47864 27.79634,-2.47864 l 11.96836,0 z m -11.33096,26.64554 q -10.16249,0 -16.92567,1.13306 -6.78085,0.88525 -10.85292,3.18686 -4.07207,2.23079 -5.6655,5.63009 -1.55802,3.1514 -1.55802,7.66609 0,7.914 4.28455,11.50803 4.49694,3.41701 12.39323,3.41701 7.43595,0 13.98671,-2.47864 6.79855,-2.72653 15.58009,-7.91399 l 0,-22.13085 z m 147.30274,30.27494 0,20.11249 -64.39184,0 0,-146.59456 -35.23225,0 0,-20.14786 62.32037,0 0,146.62993 z m 25.81336,-51.52053 74.094,0 0,23.2816 -74.094,0 z m 197.6371,69.36682 q -7.914,1.80587 -16.9434,3.18682 -8.8169,1.32787 -17.6338,1.32787 -14.69493,0 -25.49473,-2.47863 -10.6228,-2.70883 -17.6515,-9.25953 -6.7632,-6.55076 -10.39264,-17.63386 -3.36389,-11.0654 -3.36389,-28.00878 0,-17.17353 4.2845,-28.45136 4.28453,-11.29559 11.73823,-18.05878 7.6838,-7.02874 18.519,-9.73752 10.7999,-2.70882 24.13153,-2.70882 9.0293,0 17.4037,1.1331 8.3565,1.1331 16.2882,3.18681 l -2.514,19.82923 q -7.2235,-1.77045 -13.9867,-2.47863 -6.7986,-0.88525 -15.1552,-0.88525 -7.9139,0 -14.25223,1.59343 -6.0904,1.34554 -10.6228,5.63009 -4.2845,4.07207 -6.5507,11.29554 -2.2485,7.25893 -2.2485,18.76695 0,11.73817 1.8058,18.94398 2.0361,7.02875 6.1082,11.33096 4.072,4.24914 10.3926,5.84257 6.32063,1.59338 15.34993,1.59338 6.7632,0 13.9867,-0.8852 7.436,-1.15081 14.6948,-2.95668 z m 130.5187,-54.44179 q 0,17.38596 -3.6294,28.91169 -3.6118,11.50802 -10.375,18.51906 -6.7809,6.7809 -16.5007,9.48967 -9.4897,2.93897 -21.4581,2.93897 -12.4286,0 -21.9183,-2.70878 -9.4897,-2.47868 -16.0404,-9.02938 -6.3206,-6.55071 -9.7022,-17.8463 -3.3992,-11.29558 -3.3992,-28.68154 0,-17.40367 3.6294,-28.9294 3.6117,-11.50803 10.1624,-18.2358 6.7632,-7.02874 16.2529,-9.73757 9.4897,-2.93897 21.6882,-2.93897 12.4287,0 21.9184,2.70883 9.4897,2.47863 16.0404,9.02939 6.5508,6.5507 9.9146,17.8817 3.417,11.27784 3.417,28.6815 z m -27.336,0.8852 q 0,-11.72046 -1.5934,-19.19182 -1.3455,-7.43596 -4.5147,-11.6851 -2.939,-4.30221 -7.6838,-5.89564 -4.5147,-1.59343 -10.6228,-1.59343 -6.0904,0 -10.6228,1.59343 -4.2491,1.59343 -7.4359,5.87794 -3.1869,4.07206 -4.5147,11.50802 -1.4164,7.43595 -1.4164,19.19187 0,11.75588 1.3809,19.43968 1.3279,7.47137 4.497,11.75592 3.1869,4.28451 7.436,5.87794 4.5324,1.59343 10.853,1.59343 6.1081,0 10.6228,-1.59343 4.5146,-1.59343 7.4359,-5.6655 3.1868,-4.28451 4.5324,-11.73817 1.5934,-7.68385 1.5934,-19.42202 z m 123.5254,44.29706 q -8.6044,5.87793 -17.4037,9.91459 -8.5867,3.85963 -18.7669,3.85963 -8.7992,0 -16.0227,-2.70882 -7.2235,-2.70883 -12.4287,-9.25953 -4.9573,-6.55071 -7.914,-17.43908 -2.7088,-10.83526 -2.7088,-27.08812 0,-16.50076 3.8419,-27.7963 3.8419,-11.29559 10.1448,-18.30662 6.5507,-7.20582 15.1729,-10.35722 8.5867,-3.18686 18.5368,-3.18686 7.2234,0 13.3139,1.59343 6.3382,1.59343 11.986,4.74483 l 0.2127,-0.23 q -0.4427,-6.30285 -0.8852,-11.95065 -0.2301,-5.87793 -0.2301,-11.96831 l 0,-35.03752 27.1236,0 0,166.72471 -22.1308,0 z m -3.1868,-75.2448 q -5.1875,-2.92127 -9.9146,-4.49694 -4.7803,-1.59344 -10.1802,-1.59344 -4.9573,0 -9.4897,1.59344 -4.32,1.59338 -7.9317,5.87793 -3.3993,4.28451 -5.4353,11.50803 -2.0361,7.25888 -2.0361,18.76691 0,11.04773 1.381,18.05877 1.3633,6.78085 3.8419,10.83526 2.7088,3.84188 6.3206,5.20516 3.6117,1.38095 8.3566,1.38095 5.8779,0 11.7559,-2.70882 5.8779,-2.70883 13.3316,-7.89629 z m 149.2856,83.83156 q -9.0294,2.47864 -19.2095,3.84193 -9.9146,1.31012 -21.9184,1.31012 -12.6765,0 -22.6265,-2.2485 -9.9146,-2.2662 -16.7132,-8.37428 -6.7809,-6.32056 -10.4104,-17.386 -3.6117,-11.29554 -3.6117,-29.38973 0,-17.35055 3.8419,-28.89399 3.8419,-11.50802 10.8529,-18.27121 6.9934,-7.01103 16.7132,-9.73752 9.9147,-2.92131 21.4581,-2.92131 11.7382,0 20.3249,2.47869 8.5868,2.2662 14.2346,8.14413 5.8779,5.6655 8.5867,15.58009 2.939,9.95001 2.939,25.06977 0,3.80651 -0.23,7.64844 0,3.61173 -0.4605,7.6838 l -71.1727,0 q 0.2479,9.73757 2.0538,15.58009 2.036,5.87794 5.6655,9.02939 3.8242,3.18682 9.7021,4.30221 5.8957,1.1154 13.8097,1.1154 9.4719,0 17.3859,-1.1331 8.1442,-1.36325 16.4654,-3.36384 z m -19.6522,-63.0286 q 0,-8.58671 -1.5934,-14.23451 -1.3455,-5.6655 -4.2845,-8.58676 -2.939,-3.15145 -7.2235,-4.28455 -4.072,-1.32783 -9.4897,-1.32783 -5.6655,0 -10.1801,1.36324 -4.4793,1.36329 -7.8609,4.5324 -3.1869,3.18682 -4.9573,8.81691 -1.8236,5.41765 -2.0538,13.77422 z m 101.1466,-31.62047 q 9.4896,-8.37432 18.0587,-12.88902 8.5869,-4.51469 17.6338,-4.51469 5.6658,0 10.1979,1.1331 4.5148,0.88525 8.8169,3.18686 l -4.3021,24.37929 q -3.8243,-2.2662 -8.3213,-3.62944 -4.5322,-1.38095 -9.9145,-1.38095 -3.6472,0 -7.0462,0.88521 -3.1516,0.92066 -6.7633,2.72653 -3.3638,1.59343 -7.2237,4.2845 -3.6117,2.47868 -8.3565,5.63009 l 0,57.62865 33.4262,0 0,20.11249 -88.523,0 0,-20.07707 27.9734,0 0,-71.38517 -26.6455,0 0,-20.32493 49.2719,0 z"
     inkscape:connector-curvature="0" />
</svg>
